# xmcd
#
# Track frame offsets: 
#        150
#        11250
#        22105
#        36992
#        47515
#        62677
#        75197
#        88982
#        100915
#        118127
#        129097
#        140817
#
# Disc length: 2021 seconds
#
# Revision: 0
# Processed by: cddbd v1.4PL0 Copyright (c) Steve Scherf et al.
# Submitted via: ExactAudioCopy v0.90b4
#
DISCID=9707e30c
DTITLE=Ian Tyson - Ol' Eon
DYEAR=1973
DGENRE=Country
TTITLE0=Some Kind Of Fool
TTITLE1=Bad Times Were So Easy
TTITLE2=Blueberry Susan
TTITLE3=Sam Bonnifield's Saloon
TTITLE4=If She Just Helps Me
TTITLE5=Lord, Lead Me Home
TTITLE6=Great Canadian Tour
TTITLE7=She's My Greatest Blessing
TTITLE8=Spanish Johnny
TTITLE9=The Girl Who Turned Me Down
TTITLE10=The North Saskatchewan
TTITLE11=Love Can Bless The Soul Of Anyone
EXTD=
EXTT0=
EXTT1=
EXTT2=
EXTT3=
EXTT4=
EXTT5=
EXTT6=
EXTT7=
EXTT8=
EXTT9=
EXTT10=
EXTT11=
PLAYORDER=
